<svg xmlns="http://www.w3.org/2000/svg" width="10.93" height="21.99"
     viewBox="0 0 10.93 21.99">
    <path d="M43.979,12.926l-2.54,22.919v.061H28.68L26.14,12.956h2.63L27.8,5.548l2.54-.333,1,7.74H33L32.61,8l2.54-.212.423,5.171h1.966L37.6,4.036h2.57A2.963,2.963,0,0,1,41.5,4.58a2.521,2.521,0,0,1,.968,1.935c.091,1.542.061,3.477.061,3.568a.674.674,0,0,1-.544.6h-.122a.666.666,0,0,1-.635-.666c0-.03.061-2-.06-3.447a1.3,1.3,0,0,0-.453-1,1.261,1.261,0,0,0-.635-.242l-.032,7.59ZM27.706,4.861l2.518-.329-.082-.63-2.518.329Zm-.178-1.255,2.518-.329-.083-.63-2.518.329Zm-.178-1.263,2.54-.332L29.8,1.376S29.677-.166,28.347.015s-1.058,1.693-1.058,1.693Zm5.191,4.963,2.532-.2-.05-.633-2.532.2Zm-.113-1.268,2.532-.2-.05-.633-2.532.2Zm-.119-1.276,2.54-.211-.06-.635S34.727,2.374,33.4,2.464C32.006,2.586,32.248,4.1,32.248,4.1Zm7.771-2.026H39.5V.8h-1.27V2.736h-.7v.635h2.541Z"
          transform="translate(-26.14 0)" fill="#171717"/>
</svg>