<svg xmlns="http://www.w3.org/2000/svg" xmlns:xlink="http://www.w3.org/1999/xlink" width="167" height="26.176" viewBox="0 0 167 26.176">
  <defs>
    <clipPath id="clip-path">
      <rect width="167" height="26.176" fill="none"/>
    </clipPath>
  </defs>
  <g id="Logo" clip-path="url(#clip-path)">
    <path id="Path_73" data-name="Path 73" d="M-1518.18,1278.885h20.792a2.078,2.078,0,0,0,2.078-2.078v-3.752h-15.035V1268.5h10.484v-5.1h-10.484V1259h15.035v-5.868h-22.87v25.749Z" transform="translate(1602.43 -1252.709)" fill="#d7172f" fill-rule="evenodd"/>
    <path id="Path_74" data-name="Path 74" d="M-1904.566,1253.136h-15.788v25.749h5.756a2.078,2.078,0,0,0,2.078-2.08l-.006-5.095h7.961C-1892.214,1271.71-1892.261,1253.136-1904.566,1253.136Zm-1.929,12.568h-6.032v-6.562h6.138C-1902.125,1259.142-1901.886,1265.7-1906.495,1265.7Z" transform="translate(1920.354 -1252.709)" fill="#d7172f" fill-rule="evenodd"/>
    <path id="Path_75" data-name="Path 75" d="M-1634.617,1253.136h-15.789v25.749h5.756a2.078,2.078,0,0,0,2.078-2.08l-.006-5.095h7.961C-1622.267,1271.71-1622.313,1253.136-1634.617,1253.136Zm-1.929,12.568h-6.031v-6.562h6.138C-1632.177,1259.142-1631.938,1265.7-1636.547,1265.7Z" transform="translate(1706.956 -1252.709)" fill="#d7172f" fill-rule="evenodd"/>
    <path id="Path_76" data-name="Path 76" d="M-1792.529,1263.059c1.053-5.28,7.142-5.573,8.289.135l.361,1.725h-5.664a2.01,2.01,0,0,0-2.066,1.562l-.868,4.677h9.852l1.167,6.115h7.65l-2.845-14.708c-2.964-15.319-20.51-15.261-23.463,0l-2.845,14.708h5.89a2.078,2.078,0,0,0,2.038-1.671l2.5-12.543Z" transform="translate(1827.553 -1251.097)" fill="#d7172f" fill-rule="evenodd"/>
    <g id="Group_326" data-name="Group 326" transform="translate(110.675 0.427)">
      <path id="Path_77" data-name="Path 77" d="M-1376.247,1253.136h-15.788v25.749h5.756a2.078,2.078,0,0,0,2.078-2.08l-.006-5.095h7.961C-1363.9,1271.71-1363.943,1253.136-1376.247,1253.136Zm-1.929,12.568h-6.031v-6.562h6.138C-1373.807,1259.142-1373.567,1265.7-1378.176,1265.7Z" transform="translate(1392.035 -1253.136)" fill="#d7172f" fill-rule="evenodd"/>
      <path id="Path_78" data-name="Path 78" d="M-1333.043,1321.93h-8.562l5.907,11.337h8.562Z" transform="translate(1352.169 -1307.519)" fill="#d7172f" fill-rule="evenodd"/>
    </g>
    <path id="Path_79" data-name="Path 79" d="M-1251.895,1263.059c1.053-5.28,7.142-5.573,8.289.135l.361,1.725h-5.664a2.009,2.009,0,0,0-2.066,1.562l-.868,4.677h9.852l1.167,6.115h7.651l-2.845-14.708c-2.964-15.319-20.51-15.261-23.463,0l-2.845,14.708h5.89a2.078,2.078,0,0,0,2.038-1.671l2.5-12.543Z" transform="translate(1400.174 -1251.097)" fill="#d7172f" fill-rule="evenodd"/>
  </g>
</svg>
