<svg xmlns="http://www.w3.org/2000/svg" width="20.293" height="15.783" viewBox="0 0 20.293 15.783"><path d="M18.6,32H1.691A1.691,1.691,0,0,0,0,33.691v12.4a1.691,1.691,0,0,0,1.691,1.691H18.6a1.691,1.691,0,0,0,1.691-1.691v-12.4A1.691,1.691,0,0,0,18.6,32ZM6.2,35.382a2.255,2.255,0,1,1-2.255,2.255A2.257,2.257,0,0,1,6.2,35.382Zm3.946,8.343a.739.739,0,0,1-.789.676H3.044a.739.739,0,0,1-.789-.676v-.676a2.219,2.219,0,0,1,2.367-2.029H4.8a3.629,3.629,0,0,0,2.8,0h.176a2.219,2.219,0,0,1,2.367,2.029Zm7.892-1.86a.283.283,0,0,1-.282.282H12.683a.283.283,0,0,1-.282-.282V41.3a.283.283,0,0,1,.282-.282h5.073a.283.283,0,0,1,.282.282Zm0-2.255a.283.283,0,0,1-.282.282H12.683a.283.283,0,0,1-.282-.282v-.564a.283.283,0,0,1,.282-.282h5.073a.283.283,0,0,1,.282.282Zm0-2.255a.283.283,0,0,1-.282.282H12.683a.283.283,0,0,1-.282-.282v-.564a.283.283,0,0,1,.282-.282h5.073a.283.283,0,0,1,.282.282Z" transform="translate(0 -32)" fill="#d7172f"/></svg>