<svg xmlns="http://www.w3.org/2000/svg" xmlns:xlink="http://www.w3.org/1999/xlink" width="75.362" height="47.211" viewBox="0 0 75.362 47.211"><defs><clipPath id="a"><path d="M79.781,24.523H49.85L31.118,60.606H79.781Z" transform="translate(-31.118 -24.523)" fill="#fff"/></clipPath><clipPath id="b"><path d="M37.678,48.792h31.2L87.954,12.6H37.678Z" transform="translate(-37.678 -12.604)" fill="#fff"/></clipPath></defs><g transform="translate(-178.678 -1064.604)"><g transform="translate(205.377 1075.732)" clip-path="url(#a)"><g transform="translate(-2.244 2.109)"><path d="M49.286,99.04H0V89.126a.85.85,0,0,1,.85-.85H48.437a.85.85,0,0,1,.85.85V99.04Z" transform="translate(0 -88.276)" fill="#fff"/><path d="M48.437,322.673H.85a.85.85,0,0,1-.85-.85v-9.914H49.286v9.914A.85.85,0,0,1,48.437,322.673Z" transform="translate(0 -290.382)" fill="#d7172f"/><rect width="49.286" height="10.763" transform="translate(0 10.764)" fill="#222aa0"/><path d="M72.37,188.229c-.252-.145-6.163-3.583-6.163-8.867v-7.223H78.954v7.223c0,5.285-5.911,8.723-6.163,8.867l-.211.12Z" transform="translate(-59.834 -164.066)" fill="#d7172f"/><path d="M104.411,190.054l-2,.264h-.668v-1.2h.4l1.6.264-.217-.932.217-.932-1.6.264h-.4v-.4l.264-2-.931.271-.931-.271.264,2v.4H100l-1.6-.264.217.932-.217.932,1.6-.264h.4v1.2h-.668l-2-.264.271.931-.271.932,2-.264h.668v3.075h1.335v-3.075h.668l2,.264-.271-.932Z" transform="translate(-88.326 -176.033)" fill="#f5f5f5"/><path d="M92.641,269.242a2.124,2.124,0,0,0-1.954,1.292c-.057,0-.112-.017-.17-.017a2.119,2.119,0,0,0-2.112,2,16.094,16.094,0,0,0,4.026,3.467l.211.12.211-.12a16.092,16.092,0,0,0,4.026-3.467,2.119,2.119,0,0,0-2.112-2c-.058,0-.113.012-.17.017A2.124,2.124,0,0,0,92.641,269.242Z" transform="translate(-79.895 -251.822)" fill="#222aa0"/><path d="M74.539,168.575v6.8c0,5.1-5.948,8.5-5.948,8.5s-5.948-3.4-5.948-8.5v-6.8h11.9m.85-.85h-13.6v7.648c0,5.528,6.116,9.087,6.377,9.235l.422.241.422-.241c.26-.149,6.377-3.707,6.377-9.235v-7.648Z" transform="translate(-55.845 -160.077)" fill="#f5f5f5"/></g></g><g transform="translate(178.678 1064.604)" clip-path="url(#b)"><g transform="translate(1.933 1.511)"><path d="M.318,122.759l24.687-16.174L.318,90.41A.848.848,0,0,0,0,91.064V122.1A.848.848,0,0,0,.318,122.759Z" transform="translate(0 -90.202)" fill="#222aa0"/><path d="M3.256,272.174a.847.847,0,0,0,.544.208H52.086a.862.862,0,0,0,.862-.862V256H27.943Z" transform="translate(-2.938 -239.617)" fill="#d7172f"/><path d="M3.256,88.484a.848.848,0,0,1,.544-.208H52.086a.862.862,0,0,1,.862.862v15.52H27.943Z" transform="translate(-2.938 -88.276)" fill="#fff"/></g></g></g></svg>