<svg xmlns="http://www.w3.org/2000/svg" width="50.01" height="32.766" viewBox="0 0 50.01 32.766"><defs><style>.a{fill:#222aa0;}.b{fill:#d7172f;}.c{fill:#fff;}</style></defs><g transform="translate(0 0)"><path class="a" d="M.318,122.759l24.687-16.174L.318,90.41A.848.848,0,0,0,0,91.064V122.1A.848.848,0,0,0,.318,122.759Z" transform="translate(0 -90.202)"/><path class="b" d="M3.256,272.174a.847.847,0,0,0,.544.208H52.086a.862.862,0,0,0,.862-.862V256H27.943Z" transform="translate(-2.938 -239.617)"/><path class="c" d="M3.256,88.484a.848.848,0,0,1,.544-.208H52.086a.862.862,0,0,1,.862.862v15.52H27.943Z" transform="translate(-2.938 -88.276)"/></g></svg>