<svg xmlns="http://www.w3.org/2000/svg" width="62.431" height="49.945" viewBox="0 0 62.431 49.945"><g transform="translate(-496.347 -1040.277)"><path d="M4.9,36.639a1.564,1.564,0,0,0,1.912,1.1l21.11-5.658a1.564,1.564,0,0,0,1.1-1.912l-4.848-18.1a1.564,1.564,0,0,0-1.912-1.1L14.729,13l2.419,9.043-6.029,1.61L8.7,14.613,1.16,16.632a1.564,1.564,0,0,0-1.1,1.912Z" transform="translate(496.347 1040.277)" fill="#575757"/><path d="M37.458,0a3.118,3.118,0,0,0-3.122,3.122V34.688L.575,43.9a.776.776,0,0,0-.546.956L1.258,49.37a.776.776,0,0,0,.956.546L40.619,39.439a10.91,10.91,0,0,0,21.812-.419V0ZM51.505,43.7a4.682,4.682,0,1,1,4.682-4.682A4.684,4.684,0,0,1,51.505,43.7Z" transform="translate(496.347 1040.277)" fill="#d7172f"/></g></svg>