<svg xmlns="http://www.w3.org/2000/svg" width="16.253" height="16.253" viewBox="0 0 16.253 16.253">
    <path d="M16.253,33.741V46.512a1.742,1.742,0,0,1-1.741,1.741H11.417V41.825h2.2l.316-2.453H11.417V37.8c0-.711.2-1.194,1.215-1.194h1.3V34.42a17.463,17.463,0,0,0-1.894-.1,2.957,2.957,0,0,0-3.156,3.243v1.81H6.676v2.453H8.885v6.425H1.741A1.742,1.742,0,0,1,0,46.512V33.741A1.742,1.742,0,0,1,1.741,32H14.512A1.742,1.742,0,0,1,16.253,33.741Z"
          transform="translate(0 -32)" fill="#3b5998"/>
</svg>