<svg xmlns="http://www.w3.org/2000/svg" width="25.237" height="33.682" viewBox="0 0 25.237 33.682"><path d="M-1698.666,358.682a1.338,1.338,0,0,1-1.162-1.463l.833-15.417a1.27,1.27,0,0,1-1.151-1.122s-1.021-3.449-.761-5.081c1.712-10.743,3.043-10.6,3.043-10.6a1.379,1.379,0,0,1,1.521,1.162V340.68a.985.985,0,0,1-.3.684l.878,15.855a1.338,1.338,0,0,1-1.161,1.463Zm-9.872,0a1.338,1.338,0,0,1-1.162-1.463l.862-15.959h-.99a1.034,1.034,0,0,1-1.076-.987l-.538-2.816a.9.9,0,0,1,.014-.123.881.881,0,0,1-.014-.139v-5.807a.871.871,0,0,1,.871-.871.871.871,0,0,1,.87.871v5.807a.581.581,0,0,0,.581.581.581.581,0,0,0,.58-.581v-5.807a.871.871,0,0,1,.871-.871.87.87,0,0,1,.87.871v5.807a.582.582,0,0,0,.581.581.581.581,0,0,0,.581-.581v-5.807a.871.871,0,0,1,.871-.871.871.871,0,0,1,.871.871v5.807a.848.848,0,0,1-.023.193c0,.023.008.044.008.069l-.538,2.816a1.034,1.034,0,0,1-1.076.987h-1l.884,15.959a1.338,1.338,0,0,1-1.162,1.463Zm-9.872,0a1.338,1.338,0,0,1-1.162-1.463l.944-17.473a3.023,3.023,0,0,1,.085-.8c-1.428-.693-2.456-2.623-2.456-4.9,0-2.86,1.619-5.179,3.616-5.179s3.616,2.318,3.616,5.179c0,2.435-1.177,4.474-2.76,5.026a3.679,3.679,0,0,1,.052.671l.968,17.473a1.338,1.338,0,0,1-1.161,1.463Z" transform="translate(1721 -325)" fill="#fff"/></svg>