<svg xmlns="http://www.w3.org/2000/svg" width="31.505" height="31.086" viewBox="0 0 31.505 31.086"><path d="M-1700.015,354.32a6.07,6.07,0,0,1-1.477-6.118l-3.939-3.94,3.9-3.9,3.938,3.939a6.085,6.085,0,0,1,1.857-.292,5.99,5.99,0,0,1,4.263,1.767,6.049,6.049,0,0,1,1.176,6.873.418.418,0,0,1-.3.23.419.419,0,0,1-.364-.116l-3.747-3.747a1.492,1.492,0,0,0-2.064,0,1.447,1.447,0,0,0-.429,1.032,1.45,1.45,0,0,0,.428,1.031l3.747,3.748a.415.415,0,0,1,.116.364.415.415,0,0,1-.23.3,6.1,6.1,0,0,1-2.61.59A5.992,5.992,0,0,1-1700.015,354.32Zm-17.974,1.354-2.77-2.769a.8.8,0,0,1,.045-1.185l10.172-9.12a.955.955,0,0,1,1.274.046l1.539,1.54a.95.95,0,0,1,.047,1.272l-9.121,10.175a.807.807,0,0,1-.611.283A.811.811,0,0,1-1717.988,355.674Zm10.876-12.105-1.54-1.538a1.772,1.772,0,0,0-.351-.266l9.153-9.152-.193-.193s-.516-.575-.162-1.051c.919-1.233.247-4.43-5.175-5.377-.744-.13-.877-.287-.16-.534,1.786-.615,5.542-.742,11.165,4.88,0,0,2.264,2.624,1.976,3.734-.069.253.473,1.019.8,1.468l.393-.393a1,1,0,0,1,1.418,0,1,1,0,0,1,0,1.419l-2.363,2.36a1,1,0,0,1-1.418,0,1,1,0,0,1,0-1.417l.3-.3c-.006,0-.01,0-.012,0-.546-.394-2.257-2.082-2.865-1.776-.537.266-1.19-.3-1.19-.3l-.358-.359-9.154,9.151A1.809,1.809,0,0,0-1707.112,343.569Zm-5.794-6.781a6.1,6.1,0,0,1-1.854.29,5.993,5.993,0,0,1-4.265-1.767,6.049,6.049,0,0,1-1.176-6.873.411.411,0,0,1,.3-.23.417.417,0,0,1,.364.116l3.748,3.747a1.492,1.492,0,0,0,2.065,0,1.45,1.45,0,0,0,.428-1.032,1.45,1.45,0,0,0-.428-1.032l-3.747-3.748a.418.418,0,0,1-.115-.365.415.415,0,0,1,.23-.3,6.094,6.094,0,0,1,2.61-.59,5.99,5.99,0,0,1,4.262,1.766,6.061,6.061,0,0,1,1.477,6.118l3.559,3.562-3.9,3.9Z" transform="translate(1721 -325)" fill="#fff"/></svg>