<svg xmlns="http://www.w3.org/2000/svg" width="29.2" height="28.119" viewBox="0 0 29.2 28.119"><path d="M-3035.855,353.119h-21l2.884-5.407.289-.541h-6.507a.812.812,0,0,1-.811-.811V333.381a.812.812,0,0,1,.811-.811h27.307a1.081,1.081,0,0,1,1.082,1.081v12.707a.812.812,0,0,1-.811.811h-5.966l.288.541,2.884,5.407Zm-16.637-7.03-.273.513,0,.008-.3.56-.288.541-2.6,4.867h19.647l-2.6-4.867-.288-.541-.292-.547,0,0-.283-.53-.577-1.081h-11.572Zm12.473-1.622.821,1.54a.815.815,0,0,0,.369-.728v-3.244a.727.727,0,0,0-.724-.811h-13.009a.822.822,0,0,0-.867.811v3.244a.784.784,0,0,0,.392.685l.8-1.5Zm3.939-8.561a.991.991,0,0,0,.991.991.991.991,0,0,0,.991-.991.991.991,0,0,0-.991-.991A.991.991,0,0,0-3036.08,335.905Zm-17.349,15.591v-.541h8.111v.541Zm.541-1.081v-.541h13.518v.541Zm.541-1.082v-.541h12.437v.541Zm8-1.081.028-.541.028-.541.028-.541.028-.541h2.794l.219.541.219.541.219.541.22.541Zm-10.592-16.222L-3054,325h15.749l.937,7.03Z" transform="translate(3061 -325)" fill="#fff"/></svg>