<svg xmlns="http://www.w3.org/2000/svg" width="18.192" height="33.987" viewBox="0 0 18.192 33.987"><path d="M.8,33.987S0,33.85,0,32.206V24.668a28.085,28.085,0,0,1,4.161-13.7c1.028-.034,5.605,0,5.605,0a1.155,1.155,0,0,1,.617,1.168c0,.685-.619.659-.619,1.482,0,.48.71.639.71,1.644,0,.571-.74.979-.74,1.527a1.287,1.287,0,0,0,.485,1.077c.293.274,3.011,1.462,3.011,6.464,0,6.784,0,8.565,0,8.565s.144,1.1-.679,1.1ZM3.859,10.416V8.223h6.615v2.193Zm12.979-.582a9.31,9.31,0,0,1-4.482-6.544h3.016a9.625,9.625,0,0,0,2.546,6.03.536.536,0,0,1,.124.76.321.321,0,0,1-.273.123A2.058,2.058,0,0,1,16.838,9.833ZM4.65,7.675,4.5,6.03l-3.175.056s-1.643-.159-.111-1.525c.906-.808,4.064-3.9,4.064-3.9A2.445,2.445,0,0,1,6.942,0h9.045V2.741H11.612L9.585,7.675ZM16.538.343l1.654.583V1.987l-1.654.446Z" transform="translate(0)" fill="#fff"/></svg>