<svg xmlns="http://www.w3.org/2000/svg" width="23" height="23" viewBox="0 0 23 23"><path d="M11.428,37.428a5.9,5.9,0,1,0,5.9,5.9A5.887,5.887,0,0,0,11.428,37.428Zm0,9.731a3.834,3.834,0,1,1,3.833-3.834,3.84,3.84,0,0,1-3.833,3.834Zm7.512-9.972a1.375,1.375,0,1,1-1.375-1.375A1.372,1.372,0,0,1,18.939,37.187Zm3.9,1.4a6.807,6.807,0,0,0-1.857-4.819,6.849,6.849,0,0,0-4.818-1.858c-1.9-.108-7.589-.108-9.487,0a6.839,6.839,0,0,0-4.818,1.853A6.83,6.83,0,0,0,.006,38.578c-.108,1.9-.108,7.591,0,9.489a6.807,6.807,0,0,0,1.857,4.819,6.858,6.858,0,0,0,4.818,1.858c1.9.108,7.589.108,9.487,0a6.8,6.8,0,0,0,4.818-1.858,6.852,6.852,0,0,0,1.857-4.819C22.952,46.168,22.952,40.482,22.844,38.583ZM20.392,50.1a3.881,3.881,0,0,1-2.186,2.186c-1.514.6-5.105.462-6.778.462s-5.27.133-6.778-.462A3.881,3.881,0,0,1,2.464,50.1C1.863,48.591,2,45,2,43.325s-.133-5.271.462-6.78a3.881,3.881,0,0,1,2.186-2.186c1.514-.6,5.105-.462,6.778-.462s5.27-.133,6.778.462a3.881,3.881,0,0,1,2.186,2.186c.6,1.514.462,5.107.462,6.78S20.992,48.6,20.392,50.1Z" transform="translate(0.075 -31.825)" fill="#d7172f"/></svg>