<svg xmlns="http://www.w3.org/2000/svg" width="56.809" height="50.492" viewBox="0 0 56.809 50.492"><g transform="translate(-722.688 -1043.054)"><path d="M29.015,27.388A14.369,14.369,0,0,1,33.9,29.824l15.928-5.306a1.575,1.575,0,0,0,1-1.992L44.864,4.655a1.575,1.575,0,0,0-1.992-1L36.846,5.671l3.264,9.8-5.986,1.982-3.264-9.8L24.784,9.675a1.575,1.575,0,0,0-1,1.992l5.227,15.721Z" transform="translate(722.688 1043.054)" fill="#575757"/><path d="M56.728,32.191l-1.006-3a1.575,1.575,0,0,0-1.992-1L32.674,35.218a9.424,9.424,0,0,0-7.249-3.649l-9.8-29.41a3.16,3.16,0,0,0-3-2.16H1.578A1.583,1.583,0,0,0,0,1.578V4.734A1.583,1.583,0,0,0,1.578,6.312h8.768L19.439,33.6a9.4,9.4,0,0,0-3.55,8.925A9.464,9.464,0,0,0,34.7,41.2l21.036-7.022A1.579,1.579,0,0,0,56.728,32.191ZM25.248,45.761a4.734,4.734,0,1,1,4.734-4.734A4.735,4.735,0,0,1,25.248,45.761Z" transform="translate(722.688 1043.054)" fill="#d7172f"/></g></svg>