<svg xmlns="http://www.w3.org/2000/svg" width="25.365" height="27.093" viewBox="0 0 25.365 27.093"><path d="M3127.731,27.093a1.552,1.552,0,0,1-1.553-1.557v-.365h.461a3.3,3.3,0,1,0,0-6.609h-.461V16.875h.461a3.328,3.328,0,0,0,0-6.656h-.461V8.53h.461a3.3,3.3,0,1,0,0-6.609h-.462V1.557A1.553,1.553,0,0,1,3127.73,0h18.09a1.547,1.547,0,0,1,1.545,1.558V25.536a1.545,1.545,0,0,1-1.545,1.557Zm3.645-17.39a1.173,1.173,0,0,0,1.177,1.173H3141a1.172,1.172,0,1,0,0-2.344h-8.444A1.173,1.173,0,0,0,3131.376,9.7Zm1.276-4.125a1.173,1.173,0,0,0,1.178,1.172h5.891a1.172,1.172,0,1,0,0-2.344h-5.891A1.173,1.173,0,0,0,3132.653,5.578Zm-9.106,17.813a1.547,1.547,0,0,1,0-3.093h3.093a1.547,1.547,0,0,1,0,3.093Zm0-8.3a1.547,1.547,0,0,1,0-3.093h3.092a1.547,1.547,0,0,1,0,3.093Zm0-8.3a1.547,1.547,0,0,1,0-3.093h3.092a1.547,1.547,0,0,1,0,3.093Z" transform="translate(-3122)" fill="#d7172f"/></svg>