<svg xmlns="http://www.w3.org/2000/svg" width="17.477" height="22.605" viewBox="0 0 17.477 22.605"><g transform="translate(-5.331)"><g transform="translate(5.331)"><path d="M22.3,20.658V20.17a.538.538,0,0,0-.306-.486,19.419,19.419,0,0,0-7.384-1.442V16.4a1.071,1.071,0,0,0,.538-.927v-.594h3.828a1.073,1.073,0,0,0,1.044-1.336,8.257,8.257,0,0,0,1.476-.617.538.538,0,0,0,.266-.465V9.522h.51a.538.538,0,0,0,0-1.076h-2.1a.538.538,0,0,0,0,1.076h.511v2.611a10.345,10.345,0,0,1-1.37.5l-.365-.365a1.078,1.078,0,0,0-.941-.3,24.013,24.013,0,0,1-2.862.234v-.94a9.358,9.358,0,0,0,3.079-.6,1.076,1.076,0,0,0,.627-1.088l-.825-8.193A1.077,1.077,0,0,0,17.374.5a9.037,9.037,0,0,0-3.3-.5,9.026,9.026,0,0,0-3.3.5,1.075,1.075,0,0,0-.653.884l-.825,8.2a1.075,1.075,0,0,0,.627,1.088,9.363,9.363,0,0,0,3.078.6v.94a23.716,23.716,0,0,1-2.861-.234,1.073,1.073,0,0,0-.942.3l-.364.365a10.239,10.239,0,0,1-1.37-.5V9.524h.51a.538.538,0,1,0,0-1.076h-2.1a.538.538,0,1,0,0,1.076h.51v2.943a.541.541,0,0,0,.266.465,8.279,8.279,0,0,0,1.491.622,1.066,1.066,0,0,0,1.04,1.331h3.817v.594a1.072,1.072,0,0,0,.538.927v1.838a19.408,19.408,0,0,0-7.384,1.441.54.54,0,0,0-.306.486v.489a1.049,1.049,0,1,0,1.076,0v-.132a19.636,19.636,0,0,1,6.613-1.209v1.34a1.049,1.049,0,1,0,1.076,0V19.32a19.792,19.792,0,0,1,6.613,1.209v.132a1.046,1.046,0,1,0,1.076,0ZM12.35,3.109a4.766,4.766,0,0,1,1.719-.252,4.769,4.769,0,0,1,1.719.252.269.269,0,0,1-.1.517.284.284,0,0,1-.105-.021,4.372,4.372,0,0,0-1.51-.21,4.373,4.373,0,0,0-1.511.211.269.269,0,0,1-.207-.5Zm-.269,1.634a5.521,5.521,0,0,1,1.988-.29,5.521,5.521,0,0,1,1.988.29.269.269,0,0,1-.209.5,5.155,5.155,0,0,0-1.779-.249,5.13,5.13,0,0,0-1.78.249.269.269,0,0,1-.208-.5Zm1.988,1.842a5.907,5.907,0,0,0-2.049.287.269.269,0,0,1-.208-.5,6.246,6.246,0,0,1,2.257-.329,6.246,6.246,0,0,1,2.257.329.269.269,0,0,1-.105.516.274.274,0,0,1-.1-.021A5.9,5.9,0,0,0,14.069,6.585Z" transform="translate(-5.331)"/></g></g></svg>