<svg xmlns="http://www.w3.org/2000/svg" width="27" height="21" viewBox="0 0 27 21"><path d="M27,40.622v.75A1.125,1.125,0,0,1,25.875,42.5H25.5l-1.224,8.568A2.25,2.25,0,0,1,22.049,53H4.951a2.25,2.25,0,0,1-2.227-1.932L1.5,42.5H1.125A1.125,1.125,0,0,1,0,41.372v-.75A1.125,1.125,0,0,1,1.125,39.5H4.282l5.005-6.882a1.5,1.5,0,0,1,2.426,1.765L7.991,39.5H19.009L15.287,34.38a1.5,1.5,0,0,1,2.426-1.765L22.718,39.5h3.157A1.125,1.125,0,0,1,27,40.622Zm-12.375,8.25v-5.25a1.125,1.125,0,0,0-2.25,0v5.25a1.125,1.125,0,1,0,2.25,0Zm5.25,0v-5.25a1.125,1.125,0,0,0-2.25,0v5.25a1.125,1.125,0,1,0,2.25,0Zm-10.5,0v-5.25a1.125,1.125,0,0,0-2.25,0v5.25a1.125,1.125,0,1,0,2.25,0Z" transform="translate(0 -31.997)" fill="#d7172f"/></svg>