<svg xmlns="http://www.w3.org/2000/svg" width="31.021" height="31.02" viewBox="0 0 31.021 31.02"><path d="M15.01,30.02A15.01,15.01,0,0,1,4.4,4.4,15.01,15.01,0,0,1,25.624,25.623,14.912,14.912,0,0,1,15.01,30.02ZM17.995,8.878,11.007,21.419h1.469L19.429,8.878H17.995Zm1.57,5.841a3.007,3.007,0,0,0-1.283.252,2.5,2.5,0,0,0-.895.692,2.888,2.888,0,0,0-.523,1.03,4.669,4.669,0,0,0-.169,1.282,5.622,5.622,0,0,0,.144,1.3,2.863,2.863,0,0,0,.472,1.055,2.222,2.222,0,0,0,.86.7,3.036,3.036,0,0,0,1.308.255,3.12,3.12,0,0,0,1.283-.245,2.35,2.35,0,0,0,.886-.685,2.967,2.967,0,0,0,.515-1.03,4.66,4.66,0,0,0,.169-1.283,6.01,6.01,0,0,0-.135-1.3,2.777,2.777,0,0,0-.464-1.055,2.356,2.356,0,0,0-.852-.709A2.961,2.961,0,0,0,19.564,14.72ZM10.856,9.014a2.927,2.927,0,0,0-1.283.262,2.505,2.505,0,0,0-.895.717,3.047,3.047,0,0,0-.523,1.063,4.859,4.859,0,0,0-.169,1.3,5.554,5.554,0,0,0,.144,1.292,2.717,2.717,0,0,0,.472,1.03,2.263,2.263,0,0,0,.86.677,3.168,3.168,0,0,0,1.309.244,3.227,3.227,0,0,0,1.283-.236,2.379,2.379,0,0,0,.887-.66,2.787,2.787,0,0,0,.514-1,4.566,4.566,0,0,0,.169-1.273,6.262,6.262,0,0,0-.135-1.319,2.918,2.918,0,0,0-.464-1.086,2.343,2.343,0,0,0-.852-.736A2.865,2.865,0,0,0,10.856,9.014ZM19.5,20.035a.855.855,0,0,1-.625-.218,1.339,1.339,0,0,1-.32-.532,2.563,2.563,0,0,1-.118-.668c-.011-.229-.017-.439-.017-.624s.008-.41.025-.641a2.284,2.284,0,0,1,.143-.66,1.3,1.3,0,0,1,.347-.507.924.924,0,0,1,.633-.2.761.761,0,0,1,.582.228,1.445,1.445,0,0,1,.312.541,2.809,2.809,0,0,1,.127.659c.017.242.025.438.025.6s-.008.375-.025.616a2.594,2.594,0,0,1-.135.66,1.386,1.386,0,0,1-.337.532A.861.861,0,0,1,19.5,20.035ZM10.788,14.33a.9.9,0,0,1-.625-.2,1.188,1.188,0,0,1-.321-.5A2.326,2.326,0,0,1,9.725,13c-.012-.239-.017-.437-.017-.608s.008-.4.025-.657a2.519,2.519,0,0,1,.144-.694,1.408,1.408,0,0,1,.346-.538.876.876,0,0,1,.634-.22.746.746,0,0,1,.582.236,1.5,1.5,0,0,1,.311.574,3.257,3.257,0,0,1,.127.7c.017.235.025.442.025.614s-.008.386-.025.6a2.319,2.319,0,0,1-.135.625,1.221,1.221,0,0,1-.338.5A.905.905,0,0,1,10.788,14.33Z" transform="translate(0.5 0.501)" fill="#d7172f" stroke="rgba(0,0,0,0)" stroke-width="1"/></svg>