<svg xmlns="http://www.w3.org/2000/svg" width="49.286" height="32.291" viewBox="0 0 49.286 32.291"><defs><style>.a{fill:#fff;}.b{fill:#d7172f;}.c{fill:#222aa0;}.d{fill:#f5f5f5;}</style></defs><g transform="translate(0 0)"><path class="a" d="M49.286,99.04H0V89.126a.85.85,0,0,1,.85-.85H48.437a.85.85,0,0,1,.85.85V99.04Z" transform="translate(0 -88.276)"/><path class="b" d="M48.437,322.673H.85a.85.85,0,0,1-.85-.85v-9.914H49.286v9.914A.85.85,0,0,1,48.437,322.673Z" transform="translate(0 -290.382)"/><rect class="c" width="49.286" height="10.763" transform="translate(0 10.764)"/><path class="b" d="M72.37,188.229c-.252-.145-6.163-3.583-6.163-8.867v-7.223H78.954v7.223c0,5.285-5.911,8.723-6.163,8.867l-.211.12Z" transform="translate(-59.834 -164.066)"/><path class="d" d="M104.411,190.054l-2,.264h-.668v-1.2h.4l1.6.264-.217-.932.217-.932-1.6.264h-.4v-.4l.264-2-.931.271-.931-.271.264,2v.4H100l-1.6-.264.217.932-.217.932,1.6-.264h.4v1.2h-.668l-2-.264.271.931-.271.932,2-.264h.668v3.075h1.335v-3.075h.668l2,.264-.271-.932Z" transform="translate(-88.326 -176.033)"/><path class="c" d="M92.641,269.242a2.124,2.124,0,0,0-1.954,1.292c-.057,0-.112-.017-.17-.017a2.119,2.119,0,0,0-2.112,2,16.094,16.094,0,0,0,4.026,3.467l.211.12.211-.12a16.092,16.092,0,0,0,4.026-3.467,2.119,2.119,0,0,0-2.112-2c-.058,0-.113.012-.17.017A2.124,2.124,0,0,0,92.641,269.242Z" transform="translate(-79.895 -251.822)"/><path class="d" d="M74.539,168.575v6.8c0,5.1-5.948,8.5-5.948,8.5s-5.948-3.4-5.948-8.5v-6.8h11.9m.85-.85h-13.6v7.648c0,5.528,6.116,9.087,6.377,9.235l.422.241.422-.241c.26-.149,6.377-3.707,6.377-9.235v-7.648Z" transform="translate(-55.845 -160.077)"/></g></svg>