<svg xmlns="http://www.w3.org/2000/svg" width="18.241" height="18.239" viewBox="0 0 18.241 18.239"><path d="M10.546,13.753H7.7A.853.853,0,0,1,6.84,12.9V6.913H3.716a.711.711,0,0,1-.5-1.215L8.633.275a.69.69,0,0,1,.973,0L15.028,5.7a.711.711,0,0,1-.5,1.215H11.4V12.9A.853.853,0,0,1,10.546,13.753Zm7.7-.285v3.99a.853.853,0,0,1-.855.855H.855A.853.853,0,0,1,0,17.458v-3.99a.853.853,0,0,1,.855-.855H5.7V12.9a2,2,0,0,0,2,2h2.85a2,2,0,0,0,2-2v-.285h4.845A.853.853,0,0,1,18.241,13.468ZM13.823,16.6a.713.713,0,1,0-.713.713A.715.715,0,0,0,13.823,16.6Zm2.28,0a.713.713,0,1,0-.713.713A.715.715,0,0,0,16.1,16.6Z" transform="translate(0 -0.075)" fill="#fff"/></svg>