<svg xmlns="http://www.w3.org/2000/svg" width="50.628" height="45" viewBox="0 0 50.628 45"><g transform="translate(-938.702 -1045.5)"><path d="M9.844,22.5H40.781a1.41,1.41,0,0,0,1.406-1.406V1.406A1.41,1.41,0,0,0,40.781,0H30.938V11.25L25.313,8.438,19.688,11.25V0H9.844A1.41,1.41,0,0,0,8.438,1.406V21.094A1.41,1.41,0,0,0,9.844,22.5Z" transform="translate(938.702 1045.5)" fill="#575757"/><path d="M49.685,28.837a2.909,2.909,0,0,0-3.744,0l-8.121,6.5a5.6,5.6,0,0,1-3.516,1.23h-10.4a1.406,1.406,0,1,1,0-2.813h6.882a2.926,2.926,0,0,0,2.927-2.338,2.816,2.816,0,0,0-2.777-3.287H16.875a10.344,10.344,0,0,0-6.513,2.312L6.275,33.75H1.406A1.41,1.41,0,0,0,0,35.156v8.438A1.41,1.41,0,0,0,1.406,45h31.36a5.632,5.632,0,0,0,3.516-1.23L49.571,33.135A2.811,2.811,0,0,0,49.685,28.837Z" transform="translate(938.702 1045.5)" fill="#d7172f"/></g></svg>